<svg width="26" height="29" viewBox="0 0 26 29" fill="none" xmlns="http://www.w3.org/2000/svg">
<path d="M20.4286 7.25C20.4286 11.2545 17.1031 14.5 12.9478 14.5C8.89688 14.5 5.5192 11.2545 5.5192 7.25C5.5192 3.24607 8.89688 0 12.9478 0C17.1031 0 20.4286 3.24607 20.4286 7.25ZM16.6621 20.5039C15.1125 20.9061 13.8763 22.3277 13.8763 24.0156V25.375C13.8763 25.6129 14.0272 25.8451 14.2013 26.015L15.1299 26.9213C15.4897 27.2781 16.0817 27.2781 16.4415 26.9213C16.8071 26.5701 16.8071 25.9924 16.4415 25.6412L15.7335 25.0012V24.0156C15.7335 23.0131 16.6156 22.2031 17.5906 22.2031C18.6701 22.2031 19.5 23.0131 19.5 24.0156V25.0012L18.8442 25.6412C18.4786 25.9924 18.4786 26.5701 18.8442 26.9213C19.204 27.2781 19.796 27.2781 20.1558 26.9213L21.0844 26.015C21.2585 25.8451 21.3571 25.6129 21.3571 25.375V24.0156C21.3571 22.3277 20.1732 20.9061 18.5714 20.5039V17.4906C22.8371 18.5045 26 22.2088 26 26.7344V27.1875C26 28.19 25.1701 29 24.1429 29H1.85714C0.831652 29 0 28.19 0 27.1875V26.7344C0 22.2598 3.16469 18.5045 7.42857 17.4906V20.974C6.08795 21.3648 5.10714 22.577 5.10714 24.0156C5.10714 25.7658 6.56384 27.1875 8.35714 27.1875C10.1504 27.1875 11.6071 25.7658 11.6071 24.0156C11.6071 22.577 10.6263 21.3648 9.28571 20.974V17.2301C9.44241 17.2244 9.5933 17.2188 9.75 17.2188H16.25C16.4067 17.2188 16.5576 17.2244 16.7143 17.2301L16.6621 20.5039ZM9.69777 24.0156C9.69777 24.7689 9.12902 25.375 8.30491 25.375C7.58527 25.375 6.91205 24.7689 6.91205 24.0156C6.91205 23.2623 7.58527 22.6562 8.30491 22.6562C9.12902 22.6562 9.69777 23.2623 9.69777 24.0156Z" fill="#FDFFFD"/>
</svg>
