<svg width="18" height="19" viewBox="0 0 18 19" fill="none" xmlns="http://www.w3.org/2000/svg">
<path d="M0 0.678571C0 0.498603 0.0632147 0.326006 0.175738 0.198749C0.28826 0.0714923 0.440874 0 0.600006 0H2.40002C2.53386 4.18156e-05 2.66384 0.0506902 2.7693 0.143891C2.87476 0.237091 2.94964 0.367492 2.98203 0.514357L3.46803 2.71429H17.4002C17.4913 2.71431 17.5812 2.73782 17.6631 2.78303C17.745 2.82823 17.8168 2.89395 17.8729 2.97518C17.929 3.05642 17.968 3.15104 17.9869 3.25186C18.0058 3.35268 18.0042 3.45706 17.9822 3.55707L16.1821 11.6999C16.1498 11.8468 16.0749 11.9772 15.9694 12.0704C15.864 12.1636 15.734 12.2142 15.6001 12.2143H4.80004C4.66621 12.2142 4.53622 12.1636 4.43076 12.0704C4.3253 11.9772 4.25043 11.8468 4.21804 11.6999L1.93202 1.35714H0.600006C0.440874 1.35714 0.28826 1.28565 0.175738 1.15839C0.0632147 1.03114 0 0.85854 0 0.678571ZM3.76803 4.07143L5.26805 10.8571H15.1321L16.6322 4.07143H3.76803ZM6.00006 14.9286C5.68179 14.9286 5.37656 15.0716 5.15152 15.3261C4.92647 15.5806 4.80004 15.9258 4.80004 16.2857C4.80004 16.6457 4.92647 16.9908 5.15152 17.2454C5.37656 17.4999 5.68179 17.6429 6.00006 17.6429C6.31832 17.6429 6.62355 17.4999 6.84859 17.2454C7.07364 16.9908 7.20007 16.6457 7.20007 16.2857C7.20007 15.9258 7.07364 15.5806 6.84859 15.3261C6.62355 15.0716 6.31832 14.9286 6.00006 14.9286ZM3.60003 16.2857C3.60003 15.5658 3.85289 14.8755 4.30298 14.3664C4.75308 13.8574 5.36353 13.5714 6.00006 13.5714C6.63658 13.5714 7.24704 13.8574 7.69713 14.3664C8.14722 14.8755 8.40008 15.5658 8.40008 16.2857C8.40008 17.0056 8.14722 17.696 7.69713 18.205C7.24704 18.714 6.63658 19 6.00006 19C5.36353 19 4.75308 18.714 4.30298 18.205C3.85289 17.696 3.60003 17.0056 3.60003 16.2857ZM14.4001 14.9286C14.0819 14.9286 13.7766 15.0716 13.5516 15.3261C13.3266 15.5806 13.2001 15.9258 13.2001 16.2857C13.2001 16.6457 13.3266 16.9908 13.5516 17.2454C13.7766 17.4999 14.0819 17.6429 14.4001 17.6429C14.7184 17.6429 15.0236 17.4999 15.2487 17.2454C15.4737 16.9908 15.6001 16.6457 15.6001 16.2857C15.6001 15.9258 15.4737 15.5806 15.2487 15.3261C15.0236 15.0716 14.7184 14.9286 14.4001 14.9286ZM12.0001 16.2857C12.0001 15.5658 12.253 14.8755 12.7031 14.3664C13.1532 13.8574 13.7636 13.5714 14.4001 13.5714C15.0367 13.5714 15.6471 13.8574 16.0972 14.3664C16.5473 14.8755 16.8002 15.5658 16.8002 16.2857C16.8002 17.0056 16.5473 17.696 16.0972 18.205C15.6471 18.714 15.0367 19 14.4001 19C13.7636 19 13.1532 18.714 12.7031 18.205C12.253 17.696 12.0001 17.0056 12.0001 16.2857Z" fill="#A5C0AE"/>
</svg>
