<svg width="24" height="27" viewBox="0 0 24 27" fill="none" xmlns="http://www.w3.org/2000/svg">
<g filter="url(#filter0_d_326_583)">
<path d="M4 0.643387C4 0.47275 4.05619 0.309102 4.15621 0.188444C4.25623 0.0677853 4.39189 0 4.53334 0H6.13335C6.25232 3.96474e-05 6.36786 0.0480619 6.4616 0.13643C6.55534 0.224798 6.6219 0.348438 6.65069 0.487687L7.0827 2.57355H19.4668C19.5478 2.57357 19.6278 2.59586 19.7006 2.63873C19.7734 2.68159 19.8371 2.74389 19.887 2.82092C19.9369 2.89794 19.9715 2.98765 19.9884 3.08325C20.0052 3.17884 20.0038 3.27781 19.9841 3.37263L18.3841 11.0933C18.3553 11.2325 18.2888 11.3562 18.195 11.4445C18.1013 11.5329 17.9858 11.5809 17.8668 11.581H8.26671C8.14774 11.5809 8.0322 11.5329 7.93846 11.4445C7.84472 11.3562 7.77816 11.2325 7.74937 11.0933L5.71735 1.28677H4.53334C4.39189 1.28677 4.25623 1.21899 4.15621 1.09833C4.05619 0.977672 4 0.814024 4 0.643387ZM7.34936 3.86032L8.68271 10.2942H17.4508L18.7841 3.86032H7.34936ZM9.33338 14.1545C9.05048 14.1545 8.77917 14.2901 8.57913 14.5314C8.37909 14.7727 8.26671 15.1 8.26671 15.4413C8.26671 15.7826 8.37909 16.1099 8.57913 16.3512C8.77917 16.5925 9.05048 16.7281 9.33338 16.7281C9.61628 16.7281 9.8876 16.5925 10.0876 16.3512C10.2877 16.1099 10.4001 15.7826 10.4001 15.4413C10.4001 15.1 10.2877 14.7727 10.0876 14.5314C9.8876 14.2901 9.61628 14.1545 9.33338 14.1545ZM7.20003 15.4413C7.20003 14.7587 7.42479 14.1041 7.82487 13.6215C8.22496 13.1389 8.76758 12.8677 9.33338 12.8677C9.89918 12.8677 10.4418 13.1389 10.8419 13.6215C11.242 14.1041 11.4667 14.7587 11.4667 15.4413C11.4667 16.1238 11.242 16.7784 10.8419 17.2611C10.4418 17.7437 9.89918 18.0148 9.33338 18.0148C8.76758 18.0148 8.22496 17.7437 7.82487 17.2611C7.42479 16.7784 7.20003 16.1238 7.20003 15.4413ZM16.8001 14.1545C16.5172 14.1545 16.2459 14.2901 16.0459 14.5314C15.8458 14.7727 15.7334 15.1 15.7334 15.4413C15.7334 15.7826 15.8458 16.1099 16.0459 16.3512C16.2459 16.5925 16.5172 16.7281 16.8001 16.7281C17.083 16.7281 17.3543 16.5925 17.5544 16.3512C17.7544 16.1099 17.8668 15.7826 17.8668 15.4413C17.8668 15.1 17.7544 14.7727 17.5544 14.5314C17.3543 14.2901 17.083 14.1545 16.8001 14.1545ZM14.6668 15.4413C14.6668 14.7587 14.8915 14.1041 15.2916 13.6215C15.6917 13.1389 16.2343 12.8677 16.8001 12.8677C17.3659 12.8677 17.9085 13.1389 18.3086 13.6215C18.7087 14.1041 18.9335 14.7587 18.9335 15.4413C18.9335 16.1238 18.7087 16.7784 18.3086 17.2611C17.9085 17.7437 17.3659 18.0148 16.8001 18.0148C16.2343 18.0148 15.6917 17.7437 15.2916 17.2611C14.8915 16.7784 14.6668 16.1238 14.6668 15.4413Z" fill="white"/>
</g>
<defs>
<filter id="filter0_d_326_583" x="0" y="0" width="24" height="26.0149" filterUnits="userSpaceOnUse" color-interpolation-filters="sRGB">
<feFlood flood-opacity="0" result="BackgroundImageFix"/>
<feColorMatrix in="SourceAlpha" type="matrix" values="0 0 0 0 0 0 0 0 0 0 0 0 0 0 0 0 0 0 127 0" result="hardAlpha"/>
<feOffset dy="4"/>
<feGaussianBlur stdDeviation="2"/>
<feComposite in2="hardAlpha" operator="out"/>
<feColorMatrix type="matrix" values="0 0 0 0 0 0 0 0 0 0 0 0 0 0 0 0 0 0 0.25 0"/>
<feBlend mode="normal" in2="BackgroundImageFix" result="effect1_dropShadow_326_583"/>
<feBlend mode="normal" in="SourceGraphic" in2="effect1_dropShadow_326_583" result="shape"/>
</filter>
</defs>
</svg>
