<svg width="22" height="20" viewBox="0 0 22 20" fill="none" xmlns="http://www.w3.org/2000/svg">
<path d="M11 0C16.8762 0 22 4.41001 22 9.50001C22 14.504 16.9917 18.442 11 18.442C9.71848 18.4426 8.44497 18.2584 7.227 17.896C6.7166 18.346 6.5417 18.499 5.4582 19.449C4.6772 19.985 3.9424 20.167 3.2857 19.829C2.6235 19.489 2.4244 18.827 2.5597 17.955L2.9997 15.636C1.089 14.002 0 11.842 0 9.50001C0 4.41001 5.1227 0 11 0ZM11 1.4C5.9554 1.4 1.54 5.20001 1.54 9.50001C1.54 11.545 2.5432 13.428 4.312 14.83L4.334 14.847L4.6607 15.105L4.587 15.495L4.4352 16.299L4.3945 16.513L4.081 18.171C4.06251 18.2826 4.05149 18.3952 4.048 18.508V18.603C4.048 18.608 4.0469 18.61 4.0458 18.611C4.0535 18.601 4.2031 18.558 4.4594 18.388L6.8464 16.282L7.3018 16.438C8.48477 16.8393 9.73737 17.0442 11 17.043C16.1876 17.043 20.46 13.683 20.46 9.50001C20.46 5.20101 16.0446 1.4 11 1.4ZM5.7497 7.81301C5.9713 7.80565 6.19227 7.83898 6.39939 7.91099C6.60651 7.98301 6.79553 8.09224 6.95517 8.23216C7.11481 8.37209 7.24179 8.53983 7.32851 8.72536C7.41524 8.9109 7.45994 9.11042 7.45994 9.31201C7.45994 9.51361 7.41524 9.71313 7.32851 9.89867C7.24179 10.0842 7.11481 10.2519 6.95517 10.3919C6.79553 10.5318 6.60651 10.641 6.39939 10.713C6.19227 10.7851 5.9713 10.8184 5.7497 10.811C5.32281 10.7968 4.9186 10.6327 4.62211 10.3531C4.32561 10.0736 4.15994 9.70036 4.15994 9.31201C4.15994 8.92367 4.32561 8.55046 4.62211 8.27089C4.9186 7.99133 5.32281 7.82719 5.7497 7.81301ZM11.2475 7.81301C11.4691 7.80565 11.6901 7.83898 11.8972 7.91099C12.1043 7.98301 12.2933 8.09224 12.453 8.23216C12.6126 8.37209 12.7396 8.53983 12.8263 8.72536C12.913 8.9109 12.9577 9.11042 12.9577 9.31201C12.9577 9.51361 12.913 9.71313 12.8263 9.89867C12.7396 10.0842 12.6126 10.2519 12.453 10.3919C12.2933 10.5318 12.1043 10.641 11.8972 10.713C11.6901 10.7851 11.4691 10.8184 11.2475 10.811C10.8206 10.7968 10.4164 10.6327 10.1199 10.3531C9.82341 10.0736 9.65774 9.70036 9.65774 9.31201C9.65774 8.92367 9.82341 8.55046 10.1199 8.27089C10.4164 7.99133 10.8206 7.82719 11.2475 7.81301ZM16.7442 7.81301C16.9658 7.80565 17.1868 7.83898 17.3939 7.91099C17.601 7.98301 17.79 8.09224 17.9497 8.23216C18.1093 8.37209 18.2363 8.53983 18.323 8.72536C18.4097 8.9109 18.4544 9.11042 18.4544 9.31201C18.4544 9.51361 18.4097 9.71313 18.323 9.89867C18.2363 10.0842 18.1093 10.2519 17.9497 10.3919C17.79 10.5318 17.601 10.641 17.3939 10.713C17.1868 10.7851 16.9658 10.8184 16.7442 10.811C16.3173 10.7968 15.9131 10.6327 15.6166 10.3531C15.3201 10.0736 15.1544 9.70036 15.1544 9.31201C15.1544 8.92367 15.3201 8.55046 15.6166 8.27089C15.9131 7.99133 16.3173 7.82719 16.7442 7.81301Z" fill="#A5C0AE"/>
</svg>
