<svg width="15" height="16" viewBox="0 0 15 16" fill="none" xmlns="http://www.w3.org/2000/svg">
<path fill-rule="evenodd" clip-rule="evenodd" d="M2.67501 13.1251C6.26863 12.6001 8.74295 12.6452 12.3413 13.1435C12.6019 13.1812 12.84 13.312 13.0117 13.5117C13.1833 13.7113 13.277 13.9664 13.2753 14.2297C13.2753 14.4817 13.1886 14.7263 13.0322 14.9174C12.7595 15.2506 12.4801 15.5783 12.1943 15.9002H13.5808C13.668 15.7963 13.7556 15.6902 13.8444 15.5826C14.1558 15.2007 14.3256 14.723 14.3253 14.2302C14.3253 13.1671 13.5493 12.251 12.4851 12.104C8.80175 11.5942 6.22715 11.5454 2.52329 12.0866C1.44809 12.2436 0.675293 13.1739 0.675293 14.2444C0.675293 14.7195 0.830168 15.1894 1.12364 15.57C1.21027 15.6823 1.29584 15.7926 1.38089 15.9007H2.73381C2.46786 15.5823 2.20846 15.2585 1.95576 14.9295C1.8056 14.7325 1.72459 14.4915 1.72529 14.2439C1.72529 13.6784 2.13164 13.2044 2.67501 13.1251ZM7.50027 8.02526C7.91394 8.02526 8.32355 7.94378 8.70572 7.78548C9.0879 7.62718 9.43515 7.39515 9.72765 7.10265C10.0202 6.81015 10.2522 6.46289 10.4105 6.08072C10.5688 5.69855 10.6503 5.28894 10.6503 4.87527C10.6503 4.46161 10.5688 4.052 10.4105 3.66983C10.2522 3.28765 10.0202 2.9404 9.72765 2.6479C9.43515 2.35539 9.0879 2.12337 8.70572 1.96507C8.32355 1.80677 7.91394 1.72529 7.50027 1.72529C6.66484 1.72529 5.86363 2.05716 5.27289 2.6479C4.68216 3.23863 4.35028 4.03985 4.35028 4.87527C4.35028 5.7107 4.68216 6.51191 5.27289 7.10265C5.86363 7.69339 6.66484 8.02526 7.50027 8.02526ZM7.50027 9.07525C8.61418 9.07525 9.68246 8.63276 10.4701 7.84511C11.2578 7.05746 11.7003 5.98918 11.7003 4.87527C11.7003 3.76137 11.2578 2.69309 10.4701 1.90544C9.68246 1.11779 8.61418 0.675293 7.50027 0.675293C6.38637 0.675293 5.31808 1.11779 4.53043 1.90544C3.74278 2.69309 3.30029 3.76137 3.30029 4.87527C3.30029 5.98918 3.74278 7.05746 4.53043 7.84511C5.31808 8.63276 6.38637 9.07525 7.50027 9.07525Z" fill="#A5C0AE"/>
</svg>
