<svg width="9" height="9" viewBox="0 0 9 9" fill="none" xmlns="http://www.w3.org/2000/svg">
<path fill-rule="evenodd" clip-rule="evenodd" d="M4.50005 7.54997C5.33548 7.54997 6.1367 7.21809 6.72744 6.62736C7.31817 6.03662 7.65005 5.2354 7.65005 4.39997C7.65005 3.56454 7.31817 2.76333 6.72744 2.17259C6.1367 1.58185 5.33548 1.24998 4.50005 1.24998C3.66462 1.24998 2.8634 1.58185 2.27266 2.17259C1.68192 2.76333 1.35005 3.56454 1.35005 4.39997C1.35005 5.2354 1.68192 6.03662 2.27266 6.62736C2.8634 7.21809 3.66462 7.54997 4.50005 7.54997ZM4.50005 8.59997C5.61396 8.59997 6.68224 8.15747 7.4699 7.36982C8.25755 6.58217 8.70005 5.51388 8.70005 4.39997C8.70005 3.28607 8.25755 2.21778 7.4699 1.43013C6.68224 0.642479 5.61396 0.199982 4.50005 0.199982C3.38614 0.199982 2.31785 0.642479 1.5302 1.43013C0.742547 2.21778 0.300049 3.28607 0.300049 4.39997C0.300049 5.51388 0.742547 6.58217 1.5302 7.36982C2.31785 8.15747 3.38614 8.59997 4.50005 8.59997Z" fill="#506557"/>
</svg>
