<svg width="30" height="25" viewBox="0 0 30 25" fill="none" xmlns="http://www.w3.org/2000/svg">
<path d="M11.25 12.375C12.7418 12.375 14.1726 11.7231 15.2275 10.5627C16.2824 9.40234 16.875 7.82853 16.875 6.1875C16.875 4.54647 16.2824 2.97266 15.2275 1.81228C14.1726 0.651896 12.7418 0 11.25 0C9.75816 0 8.32742 0.651896 7.27252 1.81228C6.21763 2.97266 5.625 4.54647 5.625 6.1875C5.625 7.82853 6.21763 9.40234 7.27252 10.5627C8.32742 11.7231 9.75816 12.375 11.25 12.375V12.375ZM1.875 24.75C1.875 24.75 0 24.75 0 22.6875C0 20.625 1.875 14.4375 11.25 14.4375C20.625 14.4375 22.5 20.625 22.5 22.6875C22.5 24.75 20.625 24.75 20.625 24.75H1.875ZM20.625 3.09375C20.625 2.82025 20.7238 2.55794 20.8996 2.36455C21.0754 2.17115 21.3139 2.0625 21.5625 2.0625H29.0625C29.3111 2.0625 29.5496 2.17115 29.7254 2.36455C29.9012 2.55794 30 2.82025 30 3.09375C30 3.36725 29.9012 3.62956 29.7254 3.82295C29.5496 4.01635 29.3111 4.125 29.0625 4.125H21.5625C21.3139 4.125 21.0754 4.01635 20.8996 3.82295C20.7238 3.62956 20.625 3.36725 20.625 3.09375ZM21.5625 8.25C21.3139 8.25 21.0754 8.35865 20.8996 8.55205C20.7238 8.74544 20.625 9.00775 20.625 9.28125C20.625 9.55475 20.7238 9.81706 20.8996 10.0105C21.0754 10.2039 21.3139 10.3125 21.5625 10.3125H29.0625C29.3111 10.3125 29.5496 10.2039 29.7254 10.0105C29.9012 9.81706 30 9.55475 30 9.28125C30 9.00775 29.9012 8.74544 29.7254 8.55205C29.5496 8.35865 29.3111 8.25 29.0625 8.25H21.5625ZM25.3125 14.4375C25.0639 14.4375 24.8254 14.5461 24.6496 14.7395C24.4738 14.9329 24.375 15.1952 24.375 15.4688C24.375 15.7423 24.4738 16.0046 24.6496 16.198C24.8254 16.3914 25.0639 16.5 25.3125 16.5H29.0625C29.3111 16.5 29.5496 16.3914 29.7254 16.198C29.9012 16.0046 30 15.7423 30 15.4688C30 15.1952 29.9012 14.9329 29.7254 14.7395C29.5496 14.5461 29.3111 14.4375 29.0625 14.4375H25.3125ZM25.3125 20.625C25.0639 20.625 24.8254 20.7336 24.6496 20.927C24.4738 21.1204 24.375 21.3827 24.375 21.6562C24.375 21.9298 24.4738 22.1921 24.6496 22.3855C24.8254 22.5789 25.0639 22.6875 25.3125 22.6875H29.0625C29.3111 22.6875 29.5496 22.5789 29.7254 22.3855C29.9012 22.1921 30 21.9298 30 21.6562C30 21.3827 29.9012 21.1204 29.7254 20.927C29.5496 20.7336 29.3111 20.625 29.0625 20.625H25.3125Z" fill="#506557"/>
</svg>
