<svg width="24" height="25" viewBox="0 0 24 25" fill="none" xmlns="http://www.w3.org/2000/svg">
<path d="M23.2875 15.498L21.4965 14.0214C21.5812 13.5204 21.625 13.0089 21.625 12.4974C21.625 11.9858 21.5812 11.4743 21.4965 10.9733L23.2875 9.49678C23.4226 9.38526 23.5193 9.23674 23.5647 9.07095C23.6101 8.90516 23.6021 8.72996 23.5418 8.56866L23.5172 8.5001C23.0241 7.17126 22.2858 5.93941 21.3379 4.86407L21.2887 4.80869C21.1737 4.67831 21.0204 4.58459 20.8491 4.53988C20.6777 4.49516 20.4964 4.50155 20.3289 4.55821L18.1058 5.32022C17.2855 4.67159 16.3695 4.16006 15.3797 3.80147L14.9504 1.56026C14.918 1.39162 14.8331 1.23647 14.7071 1.11544C14.5811 0.994399 14.4199 0.913198 14.2449 0.88262L14.1711 0.869437C12.7465 0.621585 11.248 0.621585 9.82342 0.869437L9.74959 0.88262C9.57458 0.913198 9.41336 0.994399 9.28735 1.11544C9.16134 1.23647 9.07651 1.39162 9.04412 1.56026L8.61209 3.81202C7.63014 4.17068 6.71571 4.68194 5.90506 5.32549L3.66561 4.55821C3.49817 4.5011 3.31667 4.49448 3.14524 4.53922C2.97381 4.58396 2.82055 4.67795 2.70584 4.80869L2.65662 4.86407C1.70983 5.94017 0.971634 7.17182 0.477325 8.5001L0.452715 8.56866C0.329669 8.89825 0.430841 9.26739 0.707012 9.49678L2.5199 10.9892C2.43514 11.4849 2.39412 11.9911 2.39412 12.4947C2.39412 13.001 2.43514 13.5072 2.5199 14.0003L0.707012 15.4927C0.571923 15.6042 0.475237 15.7527 0.429812 15.9185C0.384388 16.0843 0.392376 16.2595 0.452715 16.4208L0.477325 16.4894C0.972247 17.8183 1.70506 19.0443 2.65662 20.1254L2.70584 20.1808C2.82083 20.3111 2.97409 20.4049 3.14542 20.4496C3.31676 20.4943 3.49812 20.4879 3.66561 20.4313L5.90506 19.664C6.7199 20.31 7.63045 20.8215 8.61209 21.1774L9.04412 23.4292C9.07651 23.5978 9.16134 23.753 9.28735 23.874C9.41336 23.9951 9.57458 24.0763 9.74959 24.1068L9.82342 24.12C11.2611 24.3692 12.7334 24.3692 14.1711 24.12L14.2449 24.1068C14.4199 24.0763 14.5811 23.9951 14.7071 23.874C14.8331 23.753 14.918 23.5978 14.9504 23.4292L15.3797 21.188C16.3691 20.8303 17.2903 20.3171 18.1058 19.6692L20.3289 20.4313C20.4963 20.4884 20.6778 20.495 20.8493 20.4502C21.0207 20.4055 21.1739 20.3115 21.2887 20.1808L21.3379 20.1254C22.2894 19.0417 23.0222 17.8183 23.5172 16.4894L23.5418 16.4208C23.6648 16.0965 23.5637 15.7273 23.2875 15.498ZM19.5551 11.2845C19.6234 11.6826 19.659 12.0913 19.659 12.5C19.659 12.9087 19.6234 13.3174 19.5551 13.7155L19.3746 14.7729L21.4172 16.4577C21.1075 17.1456 20.7167 17.7968 20.2523 18.3983L17.7148 17.5309L16.8562 18.2111C16.2027 18.7279 15.4754 19.134 14.6879 19.4188L13.6461 19.7958L13.1566 22.3534C12.3844 22.4378 11.6047 22.4378 10.8324 22.3534L10.3429 19.7905L9.30936 19.4082C8.53006 19.1234 7.80545 18.7174 7.1574 18.2032L6.29881 17.5203L3.7449 18.3957C3.28006 17.7919 2.89178 17.1406 2.58006 16.4551L4.64451 14.7544L4.46678 13.6997C4.40115 13.3068 4.36561 12.9008 4.36561 12.5C4.36561 12.0966 4.39842 11.6932 4.46678 11.3003L4.64451 10.2456L2.58006 8.54493C2.88904 7.85674 3.28006 7.20811 3.7449 6.6043L6.29881 7.47969L7.1574 6.79678C7.80545 6.28262 8.53006 5.87657 9.30936 5.5918L10.3457 5.21475L10.8351 2.65186C11.6035 2.56748 12.3883 2.56748 13.1594 2.65186L13.6488 5.20948L14.6906 5.58653C15.4754 5.87129 16.2054 6.27735 16.859 6.79414L17.7176 7.47442L20.2551 6.60694C20.7199 7.21075 21.1082 7.86202 21.4199 8.54756L19.3773 10.2324L19.5551 11.2845ZM12 7.59571C9.34217 7.59571 7.18748 9.67344 7.18748 12.2363C7.18748 14.7992 9.34217 16.877 12 16.877C14.6578 16.877 16.8125 14.7992 16.8125 12.2363C16.8125 9.67344 14.6578 7.59571 12 7.59571ZM14.1656 14.3246C13.8816 14.5993 13.544 14.8171 13.1723 14.9655C12.8007 15.114 12.4023 15.1901 12 15.1895C11.1824 15.1895 10.414 14.881 9.83436 14.3246C9.5495 14.0507 9.32361 13.7252 9.16969 13.3668C9.01577 13.0084 8.93685 12.6242 8.93748 12.2363C8.93748 11.448 9.2574 10.707 9.83436 10.1481C10.414 9.58907 11.1824 9.28321 12 9.28321C12.8176 9.28321 13.5859 9.58907 14.1656 10.1481C14.4505 10.4219 14.6763 10.7475 14.8303 11.1058C14.9842 11.4642 15.0631 11.8484 15.0625 12.2363C15.0625 13.0247 14.7426 13.7656 14.1656 14.3246Z" fill="#506557"/>
</svg>
