<svg width="18" height="25" viewBox="0 0 18 25" fill="none" xmlns="http://www.w3.org/2000/svg">
<path d="M9 0C6.61392 0.00307185 4.32637 1.03881 2.63915 2.88002C0.951939 4.72123 0.0028245 7.21757 9.57508e-06 9.82143C-0.00284824 11.9493 0.634084 14.0194 1.8131 15.7143C1.8131 15.7143 2.05855 16.067 2.09864 16.1179L9 25L15.9046 16.1134C15.9406 16.0661 16.1869 15.7143 16.1869 15.7143L16.1877 15.7116C17.3661 14.0175 18.0028 11.9483 18 9.82143C17.9972 7.21757 17.0481 4.72123 15.3608 2.88002C13.6736 1.03881 11.3861 0.00307185 9 0ZM9 13.3929C8.35272 13.3929 7.71997 13.1834 7.18177 12.791C6.64358 12.3985 6.2241 11.8407 5.9764 11.1882C5.72869 10.5356 5.66388 9.81747 5.79016 9.12468C5.91644 8.43189 6.22814 7.79552 6.68583 7.29605C7.14353 6.79657 7.72668 6.45643 8.36152 6.31862C8.99637 6.18082 9.6544 6.25155 10.2524 6.52186C10.8504 6.79217 11.3616 7.24993 11.7212 7.83725C12.0808 8.42457 12.2727 9.11507 12.2727 9.82143C12.2716 10.7683 11.9265 11.676 11.313 12.3455C10.6994 13.015 9.86765 13.3917 9 13.3929Z" fill="#506557"/>
</svg>
