<svg width="27" height="26" viewBox="0 0 27 26" fill="none" xmlns="http://www.w3.org/2000/svg">
<path d="M24.1579 0H9.94718C8.37974 0 7.10504 1.1661 7.10504 2.6V9.8618L0.41607 15.9809C0.217391 16.1627 0.0820966 16.3943 0.0272895 16.6465C-0.0275177 16.8986 0.000623779 17.1599 0.108156 17.3974C0.215688 17.635 0.397783 17.838 0.631421 17.9808C0.865059 18.1237 1.13975 18.1999 1.42077 18.2V24.7C1.42077 25.0448 1.57048 25.3754 1.83699 25.6192C2.10349 25.863 2.46494 26 2.84183 26H25.5789C25.9558 26 26.3173 25.863 26.5838 25.6192C26.8503 25.3754 27 25.0448 27 24.7V2.6C27 1.1661 25.7253 0 24.1579 0ZM12.7893 23.4H4.2629V16.1382L8.52611 12.2382L12.7893 16.1382V23.4ZM24.1579 23.4H15.6315V18.2C15.9128 18.2006 16.1879 18.1247 16.422 17.9819C16.6561 17.8392 16.8385 17.636 16.9462 17.3983C17.0538 17.1605 17.0818 16.8988 17.0266 16.6465C16.9714 16.3941 16.8355 16.1625 16.6361 15.9809L9.94718 9.8618V2.6H24.1579V23.4Z" fill="#FDFFFD"/>
</svg>
