<svg width="19" height="29" viewBox="0 0 19 29" fill="none" xmlns="http://www.w3.org/2000/svg">
<path d="M18.9525 13.05H0.0475C0.213888 11.9228 0.809737 10.8576 1.7613 9.98615L3.8703 8.05765C4.4397 7.53574 4.75102 6.87788 4.75 6.19875V1.45C4.75 1.06544 4.95018 0.696623 5.3065 0.424695C5.66282 0.152767 6.14609 0 6.65 0L12.35 0C12.8539 0 13.3372 0.152767 13.6935 0.424695C14.0498 0.696623 14.25 1.06544 14.25 1.45V6.2002C14.2504 6.87851 14.5624 7.53526 15.1316 8.0562L17.2387 9.98615C18.1903 10.8576 18.7861 11.9228 18.9525 13.05ZM19 23.2V26.1C19 26.8691 18.5996 27.6068 17.887 28.1506C17.1744 28.6945 16.2078 29 15.2 29H3.8C2.79218 29 1.82563 28.6945 1.11299 28.1506C0.400356 27.6068 0 26.8691 0 26.1V23.2H19ZM3.8 15.95H15.2V20.3H3.8V15.95Z" fill="#FDFFFD"/>
</svg>
