<svg width="29" height="26" viewBox="0 0 29 26" fill="none" xmlns="http://www.w3.org/2000/svg">
<path d="M11.1373 7.24873C12.2537 7.24873 13.1549 8.01901 13.1549 8.97325C13.1549 9.92748 12.2537 10.6978 11.1373 10.6978C10.0209 10.6978 9.11967 9.92748 9.11967 8.97325C9.11967 8.01901 10.0209 7.24873 11.1373 7.24873ZM17.8627 15.2965C18.9791 15.2965 19.8803 16.0668 19.8803 17.021C19.8803 17.9752 18.9791 18.7455 17.8627 18.7455C16.7463 18.7455 15.8451 17.9752 15.8451 17.021C15.8451 16.0668 16.7463 15.2965 17.8627 15.2965ZM9.67115 18.7455L7.77458 17.1245L19.3288 7.24873L21.2254 8.86978L9.67115 18.7455ZM23.4448 2.47756L24.2653 6.91532L28.9865 8.97325L26.6057 12.9971L29 17.021L24.2384 19.0789L23.4179 23.5167L18.1855 22.8154L14.4596 26L10.7203 22.7694L5.52829 23.5052L4.69434 19.0329L0 16.9865L2.39425 12.9626L0.0134508 8.97325L4.73469 6.89233L5.55519 2.50055L10.7607 3.22485L14.5 0L18.2124 3.17886L23.4448 2.47756ZM25.3952 9.97347L21.898 8.39841L21.2254 5.07583L17.3247 5.5587L14.5 3.22485L11.6753 5.5587L7.77458 5.07583L7.10204 8.39841L3.60482 9.97347L5.35343 12.9971L3.60482 16.0208L7.10204 17.5958L7.77458 20.9184L11.6753 20.4356L14.5 22.7694L17.3247 20.4356L21.2254 20.9184L21.898 17.5958L25.3952 16.0208L23.6466 12.9971L25.3952 9.97347Z" fill="#FDFFFD"/>
</svg>
