<svg width="17" height="24" viewBox="0 0 17 24" fill="none" xmlns="http://www.w3.org/2000/svg">
<path d="M7.08333 9.70869C7.08333 9.51062 7.15796 9.32066 7.2908 9.18061C7.42364 9.04055 7.6038 8.96187 7.79167 8.96187H12.75C12.9379 8.96187 13.118 9.04055 13.2509 9.18061C13.3837 9.32066 13.4583 9.51062 13.4583 9.70869C13.4583 9.90676 13.3837 10.0967 13.2509 10.2368C13.118 10.3768 12.9379 10.4555 12.75 10.4555H7.79167C7.6038 10.4555 7.42364 10.3768 7.2908 10.2368C7.15796 10.0967 7.08333 9.90676 7.08333 9.70869ZM7.08333 14.1896C7.08333 13.9916 7.15796 13.8016 7.2908 13.6615C7.42364 13.5215 7.6038 13.4428 7.79167 13.4428H12.75C12.9379 13.4428 13.118 13.5215 13.2509 13.6615C13.3837 13.8016 13.4583 13.9916 13.4583 14.1896C13.4583 14.3877 13.3837 14.5777 13.2509 14.7177C13.118 14.8578 12.9379 14.9364 12.75 14.9364H7.79167C7.6038 14.9364 7.42364 14.8578 7.2908 14.7177C7.15796 14.5777 7.08333 14.3877 7.08333 14.1896ZM7.08333 18.6706C7.08333 18.4725 7.15796 18.2825 7.2908 18.1425C7.42364 18.0024 7.6038 17.9237 7.79167 17.9237H12.75C12.9379 17.9237 13.118 18.0024 13.2509 18.1425C13.3837 18.2825 13.4583 18.4725 13.4583 18.6706C13.4583 18.8686 13.3837 19.0586 13.2509 19.1986C13.118 19.3387 12.9379 19.4174 12.75 19.4174H7.79167C7.6038 19.4174 7.42364 19.3387 7.2908 19.1986C7.15796 19.0586 7.08333 18.8686 7.08333 18.6706ZM5.66667 9.70869C5.66667 10.0058 5.55473 10.2907 5.35547 10.5008C5.15621 10.7109 4.88596 10.8289 4.60417 10.8289C4.32237 10.8289 4.05212 10.7109 3.85287 10.5008C3.65361 10.2907 3.54167 10.0058 3.54167 9.70869C3.54167 9.41159 3.65361 9.12665 3.85287 8.91657C4.05212 8.70648 4.32237 8.58846 4.60417 8.58846C4.88596 8.58846 5.15621 8.70648 5.35547 8.91657C5.55473 9.12665 5.66667 9.41159 5.66667 9.70869ZM5.66667 14.1896C5.66667 14.4867 5.55473 14.7717 5.35547 14.9817C5.15621 15.1918 4.88596 15.3099 4.60417 15.3099C4.32237 15.3099 4.05212 15.1918 3.85287 14.9817C3.65361 14.7717 3.54167 14.4867 3.54167 14.1896C3.54167 13.8925 3.65361 13.6076 3.85287 13.3975C4.05212 13.1874 4.32237 13.0694 4.60417 13.0694C4.88596 13.0694 5.15621 13.1874 5.35547 13.3975C5.55473 13.6076 5.66667 13.8925 5.66667 14.1896ZM4.60417 19.7908C4.88596 19.7908 5.15621 19.6728 5.35547 19.4627C5.55473 19.2526 5.66667 18.9677 5.66667 18.6706C5.66667 18.3735 5.55473 18.0885 5.35547 17.8784C5.15621 17.6684 4.88596 17.5503 4.60417 17.5503C4.32237 17.5503 4.05212 17.6684 3.85287 17.8784C3.65361 18.0885 3.54167 18.3735 3.54167 18.6706C3.54167 18.9677 3.65361 19.2526 3.85287 19.4627C4.05212 19.6728 4.32237 19.7908 4.60417 19.7908ZM4.37042 1.49365C4.51696 1.05664 4.78845 0.678307 5.14747 0.410794C5.50649 0.143282 5.93537 -0.000242687 6.375 3.08044e-07H10.625C11.0646 -0.000242687 11.4935 0.143282 11.8525 0.410794C12.2115 0.678307 12.483 1.05664 12.6296 1.49365H14.875C15.4386 1.49365 15.9791 1.72969 16.3776 2.14986C16.7761 2.57003 17 3.1399 17 3.73411V21.6578C17 22.2521 16.7761 22.8219 16.3776 23.2421C15.9791 23.6623 15.4386 23.8983 14.875 23.8983H2.125C1.56141 23.8983 1.02091 23.6623 0.622398 23.2421C0.223883 22.8219 0 22.2521 0 21.6578V3.73411C0 3.1399 0.223883 2.57003 0.622398 2.14986C1.02091 1.72969 1.56141 1.49365 2.125 1.49365H4.37042ZM6.375 1.49365C6.18714 1.49365 6.00697 1.57233 5.87413 1.71238C5.74129 1.85244 5.66667 2.0424 5.66667 2.24047C5.66667 2.43854 5.74129 2.62849 5.87413 2.76855C6.00697 2.90861 6.18714 2.98729 6.375 2.98729H10.625C10.8129 2.98729 10.993 2.90861 11.1259 2.76855C11.2587 2.62849 11.3333 2.43854 11.3333 2.24047C11.3333 2.0424 11.2587 1.85244 11.1259 1.71238C10.993 1.57233 10.8129 1.49365 10.625 1.49365H6.375ZM4.37042 2.98729H2.125C1.93714 2.98729 1.75697 3.06597 1.62413 3.20603C1.49129 3.34609 1.41667 3.53604 1.41667 3.73411V21.6578C1.41667 21.8559 1.49129 22.0459 1.62413 22.1859C1.75697 22.326 1.93714 22.4047 2.125 22.4047H14.875C15.0629 22.4047 15.243 22.326 15.3759 22.1859C15.5087 22.0459 15.5833 21.8559 15.5833 21.6578V3.73411C15.5833 3.53604 15.5087 3.34609 15.3759 3.20603C15.243 3.06597 15.0629 2.98729 14.875 2.98729H12.6296C12.483 3.4243 12.2115 3.80263 11.8525 4.07014C11.4935 4.33765 11.0646 4.48118 10.625 4.48093H6.375C5.93537 4.48118 5.50649 4.33765 5.14747 4.07014C4.78845 3.80263 4.51696 3.4243 4.37042 2.98729Z" fill="#506557"/>
</svg>
